# xmcd
#
# Track frame offsets:
# 150
# 12992
# 36854
# 55196
# 75390
# 95132
# 116079
# 133924
# 147415
# 165786
# 185356
# 204099
# 232350
# 252063
#
# Disc length: 3714 seconds
#
#
# Revision: 0
# Processed by: cddbd v1.4PL0 Copyright (c) Steve Scherf et al.
# Submitted via: FreeRIP 2.00 
#
DISCID=bb0e800e
DTITLE=Randy Howard - I Rest My Case
DYEAR=2003
DGENRE=Bluegrass
TTITLE0=New Camptown Races
TTITLE1=I Rest My Case
TTITLE2=Leader Of The Band
TTITLE3=Way Back When
TTITLE4=Ain't No Part Of Nothin'
TTITLE5=A Lonesome Road
TTITLE6=Fit For A King
TTITLE7=Kansas City Kitty
TTITLE8=Sweet Bunch Of Daisies
TTITLE9=I Hear A Sweet Voice Callin'
TTITLE10=So Long, Bill
TTITLE11=Houdini
TTITLE12=River Of Tears
TTITLE13=What A Wonderful World
EXTD=
EXTT0=
EXTT1=
EXTT2=
EXTT3=
EXTT4=
EXTT5=
EXTT6=
EXTT7=
EXTT8=
EXTT9=
EXTT10=
EXTT11=
EXTT12=
EXTT13=
PLAYORDER=
